<svg width="150" height="150" viewBox="0 0 150 150" fill="none" xmlns="http://www.w3.org/2000/svg">
<circle cx="75" cy="75" r="50" fill="white"/>
<path d="M101.697 63.6039C102.526 63.0801 104.582 61.7174 103.839 59.4449C103.469 58.3106 102.491 57.9168 101.76 57.7789C101.772 57.0779 101.646 56.4556 101.284 56.0381C100.821 55.5025 100.094 55.3725 99.123 55.6521L99.3902 56.6013C99.96 56.4398 100.345 56.4674 100.538 56.6879C100.97 57.1842 100.715 58.539 100.569 59.1771C100.157 59.3386 99.3116 59.6694 98.9775 60.4886C98.6238 61.3551 99.343 63.0565 99.9679 63.7103C98.6435 68.7082 96.8868 71.5124 94.8786 71.8196C92.3595 72.2017 89.581 68.6098 88.7204 67.1958L87.3174 68.0505C87.4274 68.2277 89.3256 71.3273 91.9311 72.7688C92.9136 73.3123 93.9944 73.6195 95.1183 73.4502C97.9833 73.0169 100.137 69.7953 101.693 63.6079L101.697 63.6039Z" fill="#303030"/>
<path d="M62.4016 79.4642C58.2594 76.5694 53.681 72.7097 53.5081 71.5203C53.4885 71.3903 53.4924 71.2131 53.6889 70.965C54.7303 69.6298 59.0454 68.7476 61.5213 68.5034L61.3602 66.865C60.6331 66.9359 54.2116 67.6291 52.396 69.9488C51.9676 70.4963 51.7907 71.1186 51.8851 71.7566C52.1798 73.7967 57.1748 77.7077 60.0633 79.8108C59.7253 79.7832 59.4031 79.8029 59.124 79.8935C57.9568 80.2716 58.0276 81.1735 58.0276 81.1735C58.0276 81.1735 56.6639 81.6422 56.5931 82.3236C56.5185 83.0049 57.0412 84.5803 58.4245 84.7497C61.8357 85.1672 62.1815 79.7872 62.4055 79.4642H62.4016Z" fill="#303030"/>
<g style="mix-blend-mode:multiply">
<path d="M74.7889 104.001C89.3938 104.001 101.234 102.03 101.234 99.5978C101.234 97.166 89.3938 95.1946 74.7889 95.1946C60.1839 95.1946 48.3442 97.166 48.3442 99.5978C48.3442 102.03 60.1839 104.001 74.7889 104.001Z" fill="#CFE1EC"/>
</g>
<path d="M66.9252 85.0372L65.2943 85.2381L66.9527 98.7432C66.1824 98.5581 65.2235 98.369 64.4415 98.3454C62.8616 98.2942 61.9538 99.9129 62.5236 99.9129H68.5954C68.8862 99.9129 68.5758 98.4832 66.9252 85.0372Z" fill="#303030"/>
<path d="M85.9029 98.3691C84.9833 98.3848 84.044 98.4872 83.2698 98.6093L84.8339 85.4508L83.203 85.2539C83.1991 85.2972 81.4463 99.8736 81.4896 99.8736C81.6782 99.8736 87.3923 99.8578 88.1233 99.8578C88.8543 99.8578 87.8168 98.3297 85.9029 98.3651V98.3691Z" fill="#303030"/>
<path d="M86.3465 75.124H62.9004V87.1482H66.1426C67.1133 91.2128 70.7603 94.2336 75.1147 94.2336C79.4691 94.2336 83.1121 91.2128 84.0828 87.1482H86.3504V75.124H86.3465Z" fill="#303030"/>
<path d="M72.2969 73.0288H65.1326C64.0301 73.0288 63.1362 73.9246 63.1362 75.0296V75.9472C63.1362 77.0522 64.0301 77.948 65.1326 77.948H72.2969C73.3995 77.948 74.2934 77.0522 74.2934 75.9472V75.0296C74.2934 73.9246 73.3995 73.0288 72.2969 73.0288Z" fill="#707070"/>
<path d="M72.7017 78.1921H65.5374C64.4348 78.1921 63.541 79.0879 63.541 80.1929V81.1106C63.541 82.2155 64.4348 83.1113 65.5374 83.1113H72.7017C73.8043 83.1113 74.6981 82.2155 74.6981 81.1106V80.1929C74.6981 79.0879 73.8043 78.1921 72.7017 78.1921Z" fill="#707070"/>
<path d="M71.0198 88.6331H68.6776C67.3257 88.6331 66.076 87.8966 65.4197 86.7111C64.5865 85.2105 65.6712 83.3673 67.3846 83.3673H72.3128C74.0263 83.3673 75.1109 85.2105 74.2778 86.7111C73.6215 87.8966 72.3718 88.6331 71.0198 88.6331Z" fill="#707070"/>
<path d="M103.54 37.3026C103.54 0.966103 47 0.832196 47 37.3026C47 55.7308 57.0803 54.8092 61.2186 70.0985C61.8749 72.5246 63.7141 73.4935 63.7141 73.4935H86.8261C86.8261 73.4935 88.6653 72.5246 89.3216 70.0985C93.4127 54.9825 103.54 55.5891 103.54 37.3026Z" fill="#FFD203"/>
<path d="M73.6646 14.302C75.2405 16.7951 70.8114 19.5244 65.7103 22.754C60.6053 25.9836 56.7579 28.4924 55.182 25.9993C53.6061 23.5062 56.4671 18.8628 61.5721 15.6332C66.6771 12.4036 72.0926 11.8089 73.6685 14.302H73.6646Z" fill="white"/>
<path d="M54.7106 28.8232C56.5498 29.5439 56.4083 31.6037 55.5476 33.8526C54.6909 36.1015 53.4412 37.6887 51.602 36.968C49.7628 36.2472 48.965 33.8408 49.8256 31.5919C50.6824 29.343 52.8713 28.1024 54.7106 28.8232Z" fill="white"/>
<path d="M90.4221 13.8569C94.9454 18.91 97.6964 25.5897 97.6964 32.9114C97.6964 41.5327 93.8844 49.26 87.8558 54.4943C85.3053 61.4339 78.6479 66.3807 70.8391 66.3807C64.4137 66.3807 58.7742 63.029 55.5556 57.9759C55.2058 57.7829 54.8639 57.5821 54.522 57.3773C57.0214 60.5478 59.5837 64.0609 61.2186 70.0986C61.8749 72.5247 63.7141 73.4936 63.7141 73.4936H86.8262C86.8262 73.4936 88.6654 72.5247 89.3217 70.0986C93.4128 54.9827 103.54 55.5892 103.54 37.3028C103.54 25.9481 98.0187 18.1263 90.426 13.8569H90.4221Z" fill="#FFB600"/>
<path d="M86.614 73.0288H62.9793C61.8767 73.0288 60.9829 73.9246 60.9829 75.0296V75.9472C60.9829 77.0522 61.8767 77.948 62.9793 77.948H86.614C87.7166 77.948 88.6105 77.0522 88.6105 75.9472V75.0296C88.6105 73.9246 87.7166 73.0288 86.614 73.0288Z" fill="#606060"/>
<path d="M86.6414 78.1921H63.0067C61.9041 78.1921 61.0103 79.0879 61.0103 80.1929V81.1106C61.0103 82.2155 61.9041 83.1113 63.0067 83.1113H86.6414C87.744 83.1113 88.6378 82.2155 88.6378 81.1106V80.1929C88.6378 79.0879 87.744 78.1921 86.6414 78.1921Z" fill="#606060"/>
<path d="M84.476 88.6331H65.1171C63.7651 88.6331 62.5154 87.8966 61.8591 86.7111C61.026 85.2105 62.1106 83.3673 63.8241 83.3673H85.7689C87.4824 83.3673 88.5671 85.2105 87.7339 86.7111C87.0776 87.8966 85.8318 88.6331 84.476 88.6331Z" fill="#606060"/>
<path d="M73.0048 58.476C72.9026 58.476 72.8043 58.4405 72.7218 58.3696C72.545 58.2121 72.5292 57.9403 72.6864 57.7631C72.7218 57.7237 73.5628 56.7864 74.7615 56.7667C75.4924 56.7548 76.1959 57.0857 76.8247 57.7552C76.9858 57.9285 76.9779 58.2003 76.809 58.3618C76.636 58.5232 76.3649 58.5154 76.2037 58.346C75.7479 57.8616 75.2684 57.6253 74.7772 57.6292C73.9676 57.641 73.3388 58.3302 73.331 58.3381C73.2445 58.4326 73.1266 58.4838 73.0087 58.4838L73.0048 58.476Z" fill="#231F20"/>
<path d="M93.0599 51.0186C94.6176 49.4575 94.6176 46.9263 93.0599 45.3652C91.5021 43.804 88.9765 43.804 87.4187 45.3652C85.861 46.9263 85.861 49.4575 87.4187 51.0186C88.9765 52.5798 91.5021 52.5798 93.0599 51.0186Z" fill="white"/>
<path d="M87.4941 48.1257C87.4941 49.6459 88.7242 50.8787 90.2412 50.8787C91.7581 50.8787 92.9882 49.6459 92.9882 48.1257C92.9882 46.6054 91.7581 45.3727 90.2412 45.3727C88.7242 45.3727 87.4941 46.6054 87.4941 48.1257Z" fill="#231F20"/>
<path d="M63.1119 49.7192C63.9549 47.6795 62.9884 45.341 60.9531 44.4962C58.9178 43.6513 56.5844 44.6199 55.7413 46.6596C54.8983 48.6994 55.8648 51.0378 57.9001 51.8827C59.9354 52.7276 62.2688 51.759 63.1119 49.7192Z" fill="white"/>
<path d="M56.6797 48.1257C56.6797 49.6459 57.9098 50.8787 59.4267 50.8787C60.9437 50.8787 62.1738 49.6459 62.1738 48.1257C62.1738 46.6054 60.9437 45.3727 59.4267 45.3727C57.9098 45.3727 56.6797 46.6054 56.6797 48.1257Z" fill="#231F20"/>
</svg>
