<svg width="150" height="150" viewBox="0 0 150 150" fill="none" xmlns="http://www.w3.org/2000/svg">
<circle cx="75" cy="75" r="50" fill="white"/>
<g style="mix-blend-mode:multiply">
<path d="M76.6887 107.001C88.8096 107.001 98.6356 105.352 98.6356 103.318C98.6356 101.285 88.8096 99.636 76.6887 99.636C64.5677 99.636 54.7417 101.285 54.7417 103.318C54.7417 105.352 64.5677 107.001 76.6887 107.001Z" fill="#CFE1EC"/>
</g>
<path d="M65.3071 97.2335C65.0272 96.0585 65.5831 91.2576 67.5146 88.0798L66.0869 87.1956C63.9074 90.7852 63.2876 95.9899 63.6795 97.6292C63.9354 98.6952 65.3351 100.726 66.3829 102.139C66.031 102.087 65.695 102.047 65.4111 102.034C64.1834 101.982 63.4755 103.642 63.9194 103.642H69.1342C70.002 103.642 65.703 98.8971 65.3031 97.2335H65.3071Z" fill="#303030"/>
<path d="M83.8949 87.5791L82.3712 88.2776C83.599 90.9991 85.4705 95.8606 85.2706 97.3142C85.0186 99.1474 79.6079 103.641 80.7236 103.641H82.4392L82.4472 103.65L82.4552 103.641H86.5983C87.1021 103.641 86.3023 101.978 84.9187 102.034C84.6267 102.047 84.2908 102.071 83.9509 102.103C85.2026 100.738 86.7462 98.8284 86.9222 97.5525C87.2541 95.1379 84.2348 88.3503 83.8909 87.5831L83.8949 87.5791Z" fill="#303030"/>
<path d="M99.2393 89.3194C99.1393 88.9359 99.0034 88.5684 98.8514 88.2131C100.295 90.1149 100.507 92.2267 100.519 92.3639C100.543 92.6425 100.787 92.8485 101.063 92.8242C101.339 92.8 101.543 92.5537 101.519 92.2751C101.519 92.2388 101.279 89.7919 99.6232 87.5953C101.267 89.1014 102.167 90.9507 102.179 90.983C102.299 91.2334 102.599 91.3424 102.846 91.2212C103.094 91.1001 103.202 90.8013 103.082 90.5469C102.986 90.341 100.895 86.0206 96.9958 84.9182C98.1596 81.0218 96.8879 77.2222 93.2647 73.8749C91.1932 71.961 88.8897 70.689 87.702 70.0995C87.2701 69.8855 86.7502 70.0874 86.5662 70.5356C86.3943 70.9475 86.5702 71.4239 86.9701 71.6218C88.0619 72.1669 90.2294 73.3621 92.137 75.1266C95.3362 78.0822 96.412 81.26 95.3522 84.5952C94.8043 84.353 93.5886 83.9411 92.6288 84.5225C91.841 84.999 91.4491 85.9883 91.4691 87.4661C91.4691 87.5267 91.4811 87.5832 91.5011 87.6357C91.5731 87.8295 91.761 87.9708 91.977 87.9668C92.2529 87.9668 92.4769 87.7326 92.4729 87.454C92.4649 86.707 92.5729 85.742 93.1447 85.3947C93.7246 85.0434 94.6524 85.3745 95.0643 85.5764C95.4762 86.1659 97.7157 89.6586 95.6761 92.582C95.5762 92.7233 95.5602 92.901 95.6162 93.0504C95.6482 93.1432 95.7121 93.228 95.7961 93.2886C96.0241 93.4501 96.336 93.3936 96.496 93.1675C97.9956 91.0234 97.6237 88.7138 96.9918 87.0785C97.7037 87.9183 98.0796 88.8349 98.2715 89.5779C98.6875 91.1849 98.4395 92.5981 98.0316 93.2321C97.8796 93.4663 97.9476 93.7812 98.1796 93.9346C98.4115 94.0881 98.7234 94.0194 98.8714 93.7852C99.5233 92.7758 99.6712 90.979 99.2433 89.3194H99.2393Z" fill="#303030"/>
<path d="M49.8389 90.123C49.9228 89.7353 50.0428 89.3639 50.1828 89.0045C48.8151 90.9628 48.6911 93.0827 48.6831 93.22C48.6711 93.4986 48.4352 93.7166 48.1593 93.7005C47.8833 93.6883 47.6674 93.4501 47.6794 93.1715C47.6794 93.1352 47.8153 90.6802 49.383 88.419C47.7993 89.9938 46.9795 91.8794 46.9635 91.9077C46.8556 92.1661 46.5596 92.2832 46.3037 92.1742C46.0517 92.0652 45.9318 91.7664 46.0397 91.5079C46.1277 91.298 48.0393 86.8927 51.8944 85.6329C50.5707 81.789 51.6864 77.945 55.1736 74.4482C57.1652 72.4495 59.4167 71.0807 60.5804 70.4428C61.0043 70.2126 61.5322 70.3903 61.7361 70.8304C61.9241 71.2342 61.7681 71.7187 61.3762 71.9327C60.3045 72.5222 58.1889 73.8062 56.3534 75.6475C53.2741 78.7324 52.3303 81.9545 53.526 85.2372C54.0619 84.9748 55.2616 84.5104 56.2454 85.0515C57.0532 85.4957 57.4851 86.4688 57.5251 87.9426C57.5251 88.0031 57.5171 88.0597 57.5011 88.1122C57.4371 88.31 57.2572 88.4554 57.0372 88.4634C56.7613 88.4715 56.5293 88.2494 56.5213 87.9708C56.5013 87.2238 56.3534 86.2628 55.7655 85.9398C55.1736 85.6128 54.2579 85.9842 53.8539 86.2023C53.466 86.8079 51.3665 90.3895 53.53 93.228C53.634 93.3653 53.658 93.539 53.61 93.6924C53.578 93.7853 53.522 93.8741 53.438 93.9387C53.2181 94.1083 52.9022 94.0679 52.7342 93.8458C51.1466 91.7664 51.4225 89.4446 51.9864 87.7851C51.3065 88.6532 50.9706 89.5819 50.8066 90.337C50.4547 91.9602 50.7627 93.3613 51.1946 93.9791C51.3545 94.2092 51.3025 94.5242 51.0786 94.6857C50.8546 94.8472 50.5387 94.7947 50.3787 94.5686C49.6869 93.5874 49.463 91.8027 49.8269 90.123H49.8389Z" fill="#303030"/>
<path d="M86.1022 76.766H62.2437V89.0934H65.5429C66.5307 93.2604 70.2418 96.3574 74.6688 96.3574C79.0958 96.3574 82.8069 93.2604 83.7947 89.0934H86.1022V76.766Z" fill="#303030"/>
<path d="M71.8057 74.6179H64.5154C63.3934 74.6179 62.4839 75.5363 62.4839 76.6691V77.6099C62.4839 78.7428 63.3934 79.6611 64.5154 79.6611H71.8057C72.9277 79.6611 73.8373 78.7428 73.8373 77.6099V76.6691C73.8373 75.5363 72.9277 74.6179 71.8057 74.6179Z" fill="#707070"/>
<path d="M72.2179 79.9115H64.9275C63.8055 79.9115 62.896 80.8299 62.896 81.9627V82.9035C62.896 84.0364 63.8055 84.9547 64.9275 84.9547H72.2179C73.3398 84.9547 74.2494 84.0364 74.2494 82.9035V81.9627C74.2494 80.8299 73.3398 79.9115 72.2179 79.9115Z" fill="#707070"/>
<path d="M70.5062 90.6157H68.1228C66.7471 90.6157 65.4754 89.8606 64.8075 88.6453C63.9597 87.1069 65.0635 85.2172 66.8071 85.2172H71.8219C73.5655 85.2172 74.6693 87.1069 73.8214 88.6453C73.1536 89.8606 71.8859 90.6157 70.5062 90.6157Z" fill="#707070"/>
<path d="M103.598 37.991C103.598 0.738324 46.0635 0.601041 46.0635 37.991C46.0635 56.8839 56.3211 55.9391 60.5322 71.6138C61.2 74.1011 63.0716 75.0944 63.0716 75.0944H86.5902C86.5902 75.0944 88.4617 74.1011 89.1296 71.6138C93.2926 56.1167 103.598 56.7385 103.598 37.991Z" fill="#FFD203"/>
<path d="M73.1975 14.4103C74.8011 16.9662 70.2942 19.7644 65.1033 23.0754C59.9085 26.3864 55.9934 28.9585 54.3898 26.4026C52.7862 23.8466 55.6975 19.0861 60.8923 15.7751C66.0871 12.4641 71.5979 11.8544 73.2015 14.4103H73.1975Z" fill="white"/>
<path d="M53.9095 29.2977C55.7811 30.0366 55.6371 32.1484 54.7613 34.4539C53.8895 36.7595 52.6178 38.3868 50.7462 37.6478C48.8747 36.9089 48.0629 34.4418 48.9387 32.1363C49.8105 29.8307 52.038 28.5588 53.9095 29.2977Z" fill="white"/>
<path d="M90.2493 13.954C94.8522 19.1345 97.6516 25.9826 97.6516 33.4888C97.6516 42.3276 93.7725 50.2497 87.6419 55.616C85.0465 62.7306 78.272 67.802 70.3259 67.802C63.7874 67.802 58.0487 64.3659 54.7734 59.1854C54.4175 58.9875 54.0696 58.7816 53.7217 58.5716C56.2651 61.8221 58.8725 65.4238 60.5361 71.6137C61.204 74.101 63.0755 75.0943 63.0755 75.0943H86.5941C86.5941 75.0943 88.4657 74.101 89.1335 71.6137C93.2966 56.1167 103.602 56.7385 103.602 37.991C103.602 26.35 97.9835 18.331 90.2573 13.954H90.2493Z" fill="#FFB600"/>
<path d="M86.374 74.6179H62.3235C61.2015 74.6179 60.292 75.5363 60.292 76.6691V77.6099C60.292 78.7428 61.2015 79.6611 62.3235 79.6611H86.374C87.496 79.6611 88.4055 78.7428 88.4055 77.6099V76.6691C88.4055 75.5363 87.496 74.6179 86.374 74.6179Z" fill="#606060"/>
<path d="M86.4023 79.9115H62.3518C61.2299 79.9115 60.3203 80.8299 60.3203 81.9627V82.9035C60.3203 84.0364 61.2299 84.9547 62.3518 84.9547H86.4023C87.5243 84.9547 88.4338 84.0364 88.4338 82.9035V81.9627C88.4338 80.8299 87.5243 79.9115 86.4023 79.9115Z" fill="#606060"/>
<path d="M84.1988 90.6157H64.4953C63.1196 90.6157 61.8479 89.8606 61.1801 88.6453C60.3323 87.1069 61.436 85.2172 63.1796 85.2172H85.5105C87.2541 85.2172 88.3578 87.1069 87.51 88.6453C86.8422 89.8606 85.5745 90.6157 84.1948 90.6157H84.1988Z" fill="#606060"/>
<path d="M78.7761 55.9228C78.4162 56.3669 77.8723 56.048 76.5286 56.048C75.1849 56.048 74.6531 56.3629 74.2852 55.9228C73.9052 55.4706 75.2489 54.2875 76.5286 54.2875C77.8083 54.2875 79.14 55.4706 78.7761 55.9228Z" fill="#231F20"/>
<path d="M75.1567 56.1367C75.4927 56.1085 75.9246 56.0439 76.5284 56.0439C77.8721 56.0439 78.416 56.3669 78.7759 55.9187C78.8839 55.7854 78.8399 55.5916 78.6999 55.3817C77.2283 54.9456 75.9286 55.5836 75.1567 56.1327V56.1367Z" fill="#F22B2B"/>
<path d="M91.6414 47.3667C94.506 47.3667 96.8282 45.0221 96.8282 42.1297C96.8282 39.2374 94.506 36.8927 91.6414 36.8927C88.7768 36.8927 86.4546 39.2374 86.4546 42.1297C86.4546 45.0221 88.7768 47.3667 91.6414 47.3667Z" fill="black"/>
<path d="M87.6982 42.045C87.6982 44.2456 89.4658 46.0263 91.6413 46.0263C93.8168 46.0263 95.5844 44.2456 95.5844 42.045C95.5844 39.8444 93.8208 38.0637 91.6413 38.0637C89.4618 38.0637 87.6982 39.8444 87.6982 42.045Z" fill="white"/>
<path d="M60.2845 47.3667C63.1491 47.3667 65.4713 45.0221 65.4713 42.1297C65.4713 39.2374 63.1491 36.8927 60.2845 36.8927C57.4199 36.8927 55.0977 39.2374 55.0977 42.1297C55.0977 45.0221 57.4199 47.3667 60.2845 47.3667Z" fill="black"/>
<path d="M56.3374 42.045C56.3374 44.2456 58.101 46.0263 60.2805 46.0263C62.46 46.0263 64.2236 44.2456 64.2236 42.045C64.2236 39.8444 62.46 38.0637 60.2805 38.0637C58.101 38.0637 56.3374 39.8444 56.3374 42.045Z" fill="white"/>
<path d="M119.719 11.9634C112.38 11.9634 106.43 16.623 106.43 22.3688C106.43 26.1482 109.001 29.4551 112.848 31.2762C112.848 31.2762 112.428 33.3637 110.141 35.8348C113.488 35.5037 116.199 32.4027 116.199 32.4027C117.319 32.645 118.499 32.7742 119.719 32.7742C127.057 32.7742 133.008 28.1146 133.008 22.3688C133.008 16.623 127.057 11.9634 119.719 11.9634ZM111.377 23.7336C110.489 23.7336 109.765 23.0068 109.765 22.1063C109.765 21.2059 110.485 20.4791 111.377 20.4791C112.268 20.4791 112.988 21.2059 112.988 22.1063C112.988 23.0068 112.268 23.7336 111.377 23.7336ZM119.331 23.7336C118.439 23.7336 117.719 23.0068 117.719 22.1063C117.719 21.2059 118.439 20.4791 119.331 20.4791C120.223 20.4791 120.942 21.2059 120.942 22.1063C120.942 23.0068 120.223 23.7336 119.331 23.7336ZM127.285 23.7336C126.393 23.7336 125.673 23.0068 125.673 22.1063C125.673 21.2059 126.393 20.4791 127.285 20.4791C128.177 20.4791 128.897 21.2059 128.897 22.1063C128.897 23.0068 128.177 23.7336 127.285 23.7336Z" fill="#DF3B28"/>
</svg>
