<svg width="150" height="150" viewBox="0 0 150 150" fill="none" xmlns="http://www.w3.org/2000/svg">
<circle cx="75" cy="75" r="50" fill="white"/>
<g style="mix-blend-mode:multiply">
<path d="M74.709 103C91.1135 103 104.412 101.419 104.412 99.4678C104.412 97.5171 91.1135 95.9357 74.709 95.9357C58.3044 95.9357 45.0059 97.5171 45.0059 99.4678C45.0059 101.419 58.3044 103 74.709 103Z" fill="#CFE1EC"/>
</g>
<path d="M94.7305 79.4614C94.762 79.4614 94.7895 79.4614 94.8209 79.4614C96.9465 79.3632 98.4081 76.2632 99.5553 69.4072H99.5357C100.644 68.4013 102.816 66.9241 105.28 67.8709L105.633 66.9516C103.252 66.0361 101.17 66.9358 99.7832 67.922C100.4 67.0459 101.166 66.4722 101.822 66.1108C103.237 65.3289 104.632 65.2307 105.327 65.4703L105.645 64.5392C104.537 64.158 102.809 64.4449 101.347 65.2503C101.009 65.435 100.699 65.6511 100.404 65.8829C101.846 64.0559 103.787 63.3487 103.909 63.3055L103.586 62.3743C103.551 62.3861 101.304 63.1915 99.6378 65.2935C100.659 63.3683 102.184 62.0718 102.211 62.0521L101.579 61.2938C101.39 61.451 97.0761 65.101 97.8384 69.6822C97.5319 69.8786 97.029 70.079 96.5221 69.9729C95.6696 69.7961 95.2138 68.8139 94.982 68.0242L94.0351 68.3031C94.593 70.2048 95.587 70.7862 96.3218 70.9395C96.4868 70.9748 96.6518 70.9905 96.8129 70.9905C97.0958 70.9905 97.3708 70.9395 97.6223 70.8609C96.3414 77.3909 95.0134 77.8073 94.7462 77.8191C94.7384 77.8191 94.7266 77.8191 94.7187 77.8191C93.2454 77.8191 90.778 72.2321 89.3871 66.9712L87.7998 67.3916C88.5542 70.2401 91.2612 79.4614 94.7345 79.4614H94.7305Z" fill="#303030"/>
<path d="M47.8229 66.4014C48.4751 66.7629 49.2452 67.3365 49.862 68.2127C48.4751 67.2226 46.3927 66.3228 44.0118 67.2383L44.3654 68.1577C46.8289 67.2108 49.0055 68.6881 50.1096 69.69H50.0899C51.2372 76.5461 52.6988 79.646 54.8243 79.7482C54.8558 79.7482 54.8833 79.7482 54.9147 79.7482C58.384 79.7482 61.095 70.5269 61.8494 67.6783L60.2621 67.2579C58.8712 72.5188 56.4038 78.1059 54.9304 78.1059C54.9226 78.1059 54.9108 78.1059 54.9029 78.1059C54.6318 78.0941 53.3078 77.6737 52.0269 71.1476C52.2823 71.2262 52.5534 71.2773 52.8363 71.2773C52.9974 71.2773 53.1624 71.2616 53.3274 71.2262C54.0621 71.073 55.0562 70.4915 55.6141 68.5899L54.6672 68.3109C54.4354 69.1006 53.9796 70.0829 53.127 70.2597C52.6202 70.3658 52.1173 70.1654 51.8108 69.9689C52.5691 65.3878 48.259 61.7377 48.0704 61.5806L47.4379 62.3389C47.4654 62.3585 48.9898 63.6551 50.0113 65.5803C48.3455 63.4783 46.0981 62.6728 46.0627 62.661L45.7405 63.5922C45.8663 63.6354 47.8072 64.3387 49.2452 66.1696C48.9466 65.9378 48.6362 65.7217 48.2983 65.5371C46.8367 64.7316 45.108 64.4448 44 64.8259L44.3182 65.7571C45.0137 65.5174 46.4045 65.6196 47.819 66.3975L47.8229 66.4014Z" fill="#303030"/>
<path d="M82.229 84.8324C83.4352 87.4805 85.274 92.211 85.0775 93.6255C84.8339 95.3896 79.5259 99.7822 80.6103 99.7822H82.2958L82.3036 99.79L82.3115 99.7822H86.3819C86.877 99.7822 86.0912 98.1634 84.7318 98.2184C84.4449 98.2302 84.1149 98.2538 83.7809 98.2852C85.0107 96.9572 86.5273 95.0988 86.7002 93.8573C87.0263 91.5077 84.0599 84.9031 83.722 84.1566L82.2251 84.8363L82.229 84.8324Z" fill="#303030"/>
<path d="M64.1873 93.5469C63.9123 92.4035 64.4584 87.728 66.3561 84.6399L64.9535 83.7794C62.8122 87.2723 62.2032 92.3367 62.5882 93.9319C62.8397 94.9692 64.2148 96.9454 65.2442 98.3206C64.8984 98.2695 64.5684 98.2302 64.2895 98.2184C63.0833 98.1673 62.3878 99.7822 62.8239 99.7822H67.9473C68.7999 99.7822 64.5723 95.1656 64.1834 93.5469H64.1873Z" fill="#303030"/>
<path d="M85.8163 74.9667H62.3721V86.9619H65.6135C66.5839 91.0166 70.23 94.0301 74.5833 94.0301C78.9367 94.0301 82.5788 91.0166 83.5493 86.9619H85.8163V74.9667Z" fill="#303030"/>
<path d="M71.7664 72.8763H64.6038C63.5015 72.8763 62.6079 73.7699 62.6079 74.8723V75.7877C62.6079 76.89 63.5015 77.7836 64.6038 77.7836H71.7664C72.8687 77.7836 73.7623 76.89 73.7623 75.7877V74.8723C73.7623 73.7699 72.8687 72.8763 71.7664 72.8763Z" fill="#707070"/>
<path d="M72.1707 78.0275H65.0081C63.9058 78.0275 63.0122 78.9211 63.0122 80.0234V80.9388C63.0122 82.0412 63.9058 82.9348 65.0081 82.9348H72.1707C73.273 82.9348 74.1666 82.0412 74.1666 80.9388V80.0234C74.1666 78.9211 73.273 78.0275 72.1707 78.0275Z" fill="#707070"/>
<path d="M70.4896 88.4432H68.1479C66.7963 88.4432 65.5469 87.7085 64.8908 86.5259C64.0578 85.029 65.1422 83.1902 66.8553 83.1902H71.7822C73.4953 83.1902 74.5797 85.029 73.7467 86.5259C73.0906 87.7085 71.8451 88.4432 70.4896 88.4432Z" fill="#707070"/>
<path d="M103.001 37.2367C103.001 0.98792 46.4751 0.854336 46.4751 37.2367C46.4751 55.6204 56.5529 54.701 60.6902 69.9533C61.3463 72.3736 63.1851 73.3401 63.1851 73.3401H86.2914C86.2914 73.3401 88.1302 72.3736 88.7863 69.9533C92.8764 54.8739 103.001 55.479 103.001 37.2367Z" fill="#FFD203"/>
<path d="M73.1335 14.2914C74.709 16.7785 70.2811 19.5013 65.1813 22.723C60.0775 25.9448 56.231 28.4475 54.6555 25.9605C53.08 23.4735 55.9403 18.8412 61.044 15.6194C66.1478 12.3977 71.5619 11.8044 73.1375 14.2914H73.1335Z" fill="white"/>
<path d="M54.1839 28.7776C56.0226 29.4966 55.8812 31.5515 55.0208 33.7949C54.1642 36.0384 52.9148 37.6217 51.0761 36.9027C49.2373 36.1837 48.4397 33.7831 49.3002 31.5397C50.1567 29.2962 52.3451 28.0586 54.1839 28.7776Z" fill="white"/>
<path d="M89.8907 13.8474C94.413 18.8883 97.1633 25.5518 97.1633 32.8558C97.1633 41.4564 93.3522 49.165 87.329 54.3866C84.7791 61.3095 78.1234 66.2443 70.3166 66.2443C63.8927 66.2443 58.2546 62.9007 55.0367 57.8599C54.6871 57.6673 54.3452 57.467 54.0034 57.2627C56.5023 60.4255 59.0639 63.9301 60.6984 69.9533C61.3545 72.3735 63.1933 73.3401 63.1933 73.3401H86.2996C86.2996 73.3401 88.1384 72.3735 88.7945 69.9533C92.8846 54.8738 103.01 55.4789 103.01 37.2366C103.01 25.9094 97.4894 18.1064 89.8986 13.8474H89.8907Z" fill="#FFB600"/>
<path d="M86.0794 72.8763H62.4505C61.3482 72.8763 60.4546 73.7699 60.4546 74.8723V75.7877C60.4546 76.89 61.3482 77.7836 62.4505 77.7836H86.0794C87.1817 77.7836 88.0753 76.89 88.0753 75.7877V74.8723C88.0753 73.7699 87.1817 72.8763 86.0794 72.8763Z" fill="#606060"/>
<path d="M86.1072 78.0275H62.4783C61.376 78.0275 60.4824 78.9211 60.4824 80.0234V80.9388C60.4824 82.0412 61.376 82.9348 62.4783 82.9348H86.1072C87.2096 82.9348 88.1032 82.0412 88.1032 80.9388V80.0234C88.1032 78.9211 87.2096 78.0275 86.1072 78.0275Z" fill="#606060"/>
<path d="M83.942 88.4431H64.5879C63.2363 88.4431 61.9869 87.7084 61.3307 86.5258C60.4978 85.0288 61.5822 83.1901 63.2952 83.1901H85.2347C86.9477 83.1901 88.0321 85.0288 87.1991 86.5258C86.543 87.7084 85.2936 88.4431 83.942 88.4431Z" fill="#606060"/>
<path d="M80.8689 46.4974C82.7941 47.1182 80.8571 51.5068 75.2897 51.5068C69.7224 51.5068 68.1351 47.1339 69.7145 46.4974C71.0229 45.9709 71.5847 48.7448 75.2897 48.7448C78.9948 48.7448 79.9142 46.187 80.8689 46.4974Z" fill="#231F20"/>
<path d="M71.1568 50.4419C72.1508 51.0666 73.5181 51.5106 75.2861 51.5106C77.0542 51.5106 78.555 51.0352 79.5923 50.3751C76.2409 48.3713 73.1016 49.3575 71.1528 50.4419H71.1568Z" fill="#FB422D"/>
<path d="M79.9185 50.1395V52.0922C79.9185 52.3869 80.1581 52.6266 80.4528 52.6266C80.7475 52.6266 80.9872 52.3869 80.9872 52.0922V49.2673C80.9872 48.5326 79.9146 49.3694 79.9146 50.1356L79.9185 50.1395Z" fill="#1F7FEC"/>
<path d="M80.8654 50.6031C80.8654 51.2082 80.8025 51.6993 80.724 51.6993C80.6454 51.6993 80.5825 51.2082 80.5825 50.6031C80.5825 49.9981 80.6454 49.507 80.724 49.507C80.8025 49.507 80.8654 49.9981 80.8654 50.6031Z" fill="white"/>
<path d="M80.8343 52.0922C80.8343 52.2258 80.7832 52.3358 80.7243 52.3358C80.6653 52.3358 80.6143 52.2258 80.6143 52.0922C80.6143 51.9586 80.6653 51.8486 80.7243 51.8486C80.7832 51.8486 80.8343 51.9586 80.8343 52.0922Z" fill="white"/>
<path d="M59.2164 34.8479L61.8017 40.7178L67.9466 42.5487L62.0767 45.13L60.2458 51.2789L57.6645 45.4051L51.5156 43.5781L57.3855 40.9928L59.2164 34.8479Z" fill="white"/>
<path d="M91.509 34.8478L88.9277 40.7177L82.7788 42.5486L88.6487 45.1299L90.4796 51.2788L93.061 45.405L99.2098 43.578L93.3399 40.9927L91.509 34.8478Z" fill="white"/>
</svg>
